<?xml version="1.0" standalone="no"?>
<!DOCTYPE svg PUBLIC "-//W3C//DTD SVG 20010904//EN"
 "http://www.w3.org/TR/2001/REC-SVG-20010904/DTD/svg10.dtd">
<svg version="1.0" xmlns="http://www.w3.org/2000/svg"
 width="345.000000pt" height="345.000000pt" viewBox="0 0 345.000000 345.000000"
 preserveAspectRatio="xMidYMid meet">
<metadata>
Created by potrace 1.14, written by Peter Selinger 2001-2017
</metadata>
<g transform="translate(0.000000,345.000000) scale(0.100000,-0.100000)"
fill="#000000" stroke="none">
<path d="M1678 3325 c-2 -1 -34 -5 -73 -9 -99 -8 -225 -40 -330 -84 -88 -35
-205 -96 -215 -111 -3 -4 -26 -21 -51 -39 -26 -17 -66 -55 -90 -84 -24 -29
-52 -62 -61 -73 -21 -25 -98 -151 -98 -161 0 -4 -6 -15 -14 -23 -27 -31 -86
-198 -100 -286 -8 -50 -18 -106 -21 -125 -4 -19 -9 -78 -12 -130 -4 -77 -1
-110 17 -175 28 -106 49 -141 82 -138 21 1 27 -3 31 -25 11 -61 59 -207 88
-265 17 -34 55 -96 84 -138 48 -68 51 -77 39 -94 -9 -12 -12 -30 -9 -46 4 -19
-2 -40 -24 -74 -24 -39 -29 -55 -25 -86 4 -28 1 -46 -14 -66 -39 -56 -80 -150
-91 -208 -5 -33 -13 -129 -16 -213 -5 -167 -2 -184 52 -234 28 -26 98 -52 115
-42 4 3 8 1 8 -4 0 -5 26 -12 58 -16 31 -4 62 -10 69 -14 17 -10 13 -202 -4
-202 -19 0 -83 -33 -83 -43 0 -5 82 -5 193 -1 222 9 230 9 562 0 700 -16 845
-18 845 -8 0 11 -37 27 -102 43 -39 9 -47 15 -46 33 1 11 -4 38 -11 58 -11 32
-10 43 3 69 9 18 16 38 16 46 0 7 10 13 23 14 12 0 31 2 42 4 11 2 41 6 68 10
31 4 47 11 47 21 0 8 6 14 13 14 35 1 100 86 111 145 5 29 -22 105 -48 135 -8
8 -17 39 -21 69 -12 90 -41 176 -89 266 -45 82 -46 86 -31 114 21 42 19 53
-14 85 -18 18 -31 41 -34 64 -4 33 3 47 62 127 74 100 120 182 146 265 10 30
20 60 24 65 3 6 11 30 16 55 8 38 14 45 36 48 25 3 26 6 33 80 3 42 16 117 29
166 35 132 27 226 -34 394 -62 173 -185 345 -314 442 -28 20 -68 54 -89 74
-38 37 -38 38 -32 99 6 64 3 65 -29 12 -10 -16 -11 -16 -12 2 -1 11 -8 35 -16
54 l-15 34 -1 -52 -1 -52 -26 24 c-31 29 -156 105 -172 105 -7 0 -12 4 -12 8
0 11 -110 49 -180 63 -50 9 -244 21 -252 14z"/>
</g>
</svg>
